<svg id="visual" viewBox="0 0 960 540" width="960" height="540" xmlns="http://www.w3.org/2000/svg" xmlns:xlink="http://www.w3.org/1999/xlink" version="1.1"><rect x="0" y="0" width="960" height="540" fill="#fff"></rect><defs><linearGradient id="grad1_0" x1="43.8%" y1="0%" x2="100%" y2="100%"><stop offset="14.444444444444446%" stop-color="#16161a" stop-opacity="1"></stop><stop offset="85.55555555555554%" stop-color="#16161a" stop-opacity="1"></stop></linearGradient></defs><defs><linearGradient id="grad1_1" x1="43.8%" y1="0%" x2="100%" y2="100%"><stop offset="14.444444444444446%" stop-color="#16161a" stop-opacity="1"></stop><stop offset="85.55555555555554%" stop-color="#313135" stop-opacity="1"></stop></linearGradient></defs><defs><linearGradient id="grad1_2" x1="43.8%" y1="0%" x2="100%" y2="100%"><stop offset="14.444444444444446%" stop-color="#4f4f53" stop-opacity="1"></stop><stop offset="85.55555555555554%" stop-color="#313135" stop-opacity="1"></stop></linearGradient></defs><defs><linearGradient id="grad1_3" x1="43.8%" y1="0%" x2="100%" y2="100%"><stop offset="14.444444444444446%" stop-color="#4f4f53" stop-opacity="1"></stop><stop offset="85.55555555555554%" stop-color="#6f6f72" stop-opacity="1"></stop></linearGradient></defs><defs><linearGradient id="grad1_4" x1="43.8%" y1="0%" x2="100%" y2="100%"><stop offset="14.444444444444446%" stop-color="#919193" stop-opacity="1"></stop><stop offset="85.55555555555554%" stop-color="#6f6f72" stop-opacity="1"></stop></linearGradient></defs><defs><linearGradient id="grad1_5" x1="43.8%" y1="0%" x2="100%" y2="100%"><stop offset="14.444444444444446%" stop-color="#919193" stop-opacity="1"></stop><stop offset="85.55555555555554%" stop-color="#b5b5b6" stop-opacity="1"></stop></linearGradient></defs><defs><linearGradient id="grad1_6" x1="43.8%" y1="0%" x2="100%" y2="100%"><stop offset="14.444444444444446%" stop-color="#d9d9da" stop-opacity="1"></stop><stop offset="85.55555555555554%" stop-color="#b5b5b6" stop-opacity="1"></stop></linearGradient></defs><defs><linearGradient id="grad1_7" x1="43.8%" y1="0%" x2="100%" y2="100%"><stop offset="14.444444444444446%" stop-color="#d9d9da" stop-opacity="1"></stop><stop offset="85.55555555555554%" stop-color="#ffffff" stop-opacity="1"></stop></linearGradient></defs><defs><linearGradient id="grad2_0" x1="0%" y1="0%" x2="56.3%" y2="100%"><stop offset="14.444444444444446%" stop-color="#16161a" stop-opacity="1"></stop><stop offset="85.55555555555554%" stop-color="#16161a" stop-opacity="1"></stop></linearGradient></defs><defs><linearGradient id="grad2_1" x1="0%" y1="0%" x2="56.3%" y2="100%"><stop offset="14.444444444444446%" stop-color="#313135" stop-opacity="1"></stop><stop offset="85.55555555555554%" stop-color="#16161a" stop-opacity="1"></stop></linearGradient></defs><defs><linearGradient id="grad2_2" x1="0%" y1="0%" x2="56.3%" y2="100%"><stop offset="14.444444444444446%" stop-color="#313135" stop-opacity="1"></stop><stop offset="85.55555555555554%" stop-color="#4f4f53" stop-opacity="1"></stop></linearGradient></defs><defs><linearGradient id="grad2_3" x1="0%" y1="0%" x2="56.3%" y2="100%"><stop offset="14.444444444444446%" stop-color="#6f6f72" stop-opacity="1"></stop><stop offset="85.55555555555554%" stop-color="#4f4f53" stop-opacity="1"></stop></linearGradient></defs><defs><linearGradient id="grad2_4" x1="0%" y1="0%" x2="56.3%" y2="100%"><stop offset="14.444444444444446%" stop-color="#6f6f72" stop-opacity="1"></stop><stop offset="85.55555555555554%" stop-color="#919193" stop-opacity="1"></stop></linearGradient></defs><defs><linearGradient id="grad2_5" x1="0%" y1="0%" x2="56.3%" y2="100%"><stop offset="14.444444444444446%" stop-color="#b5b5b6" stop-opacity="1"></stop><stop offset="85.55555555555554%" stop-color="#919193" stop-opacity="1"></stop></linearGradient></defs><defs><linearGradient id="grad2_6" x1="0%" y1="0%" x2="56.3%" y2="100%"><stop offset="14.444444444444446%" stop-color="#b5b5b6" stop-opacity="1"></stop><stop offset="85.55555555555554%" stop-color="#d9d9da" stop-opacity="1"></stop></linearGradient></defs><defs><linearGradient id="grad2_7" x1="0%" y1="0%" x2="56.3%" y2="100%"><stop offset="14.444444444444446%" stop-color="#ffffff" stop-opacity="1"></stop><stop offset="85.55555555555554%" stop-color="#d9d9da" stop-opacity="1"></stop></linearGradient></defs><g transform="translate(960, 0)"><path d="M0 351C-62.8 342.7 -125.7 334.3 -175.5 304C-225.3 273.6 -262.2 221.3 -289.3 167C-316.3 112.7 -333.7 56.3 -351 0L0 0Z" fill="#ececec"></path><path d="M0 307.1C-55 299.8 -110 292.5 -153.6 266C-197.2 239.4 -229.4 193.7 -253.1 146.1C-276.8 98.6 -292 49.3 -307.1 0L0 0Z" fill="#c7c7c8"></path><path d="M0 263.3C-47.1 257 -94.2 250.7 -131.6 228C-169 205.2 -196.6 166 -216.9 125.3C-237.3 84.5 -250.3 42.3 -263.2 0L0 0Z" fill="#a3a3a5"></path><path d="M0 219.4C-39.3 214.2 -78.5 208.9 -109.7 190C-140.8 171 -163.9 138.3 -180.8 104.4C-197.7 70.4 -208.5 35.2 -219.4 0L0 0Z" fill="#808083"></path><path d="M0 175.5C-31.4 171.3 -62.8 167.2 -87.7 152C-112.7 136.8 -131.1 110.7 -144.6 83.5C-158.2 56.3 -166.8 28.2 -175.5 0L0 0Z" fill="#5f5f62"></path><path d="M0 131.6C-23.6 128.5 -47.1 125.4 -65.8 114C-84.5 102.6 -98.3 83 -108.5 62.6C-118.6 42.3 -125.1 21.1 -131.6 0L0 0Z" fill="#404044"></path><path d="M0 87.8C-15.7 85.7 -31.4 83.6 -43.9 76C-56.3 68.4 -65.5 55.3 -72.3 41.8C-79.1 28.2 -83.4 14.1 -87.7 0L0 0Z" fill="#232327"></path><path d="M0 43.9C-7.9 42.8 -15.7 41.8 -21.9 38C-28.2 34.2 -32.8 27.7 -36.2 20.9C-39.5 14.1 -41.7 7 -43.9 0L0 0Z" fill="#16161a"></path></g><g transform="translate(0, 540)"><path d="M0 -351C63.9 -343.3 127.7 -335.5 175.5 -304C223.3 -272.4 254.9 -217.1 281.5 -162.5C308 -107.9 329.5 -53.9 351 0L0 0Z" fill="#ececec"></path><path d="M0 -307.1C55.9 -300.3 111.8 -293.6 153.6 -266C195.3 -238.4 223 -190 246.3 -142.2C269.5 -94.4 288.3 -47.2 307.1 0L0 0Z" fill="#c7c7c8"></path><path d="M0 -263.2C47.9 -257.4 95.8 -251.6 131.6 -228C167.4 -204.3 191.2 -162.8 211.1 -121.9C231 -80.9 247.1 -40.5 263.3 0L0 0Z" fill="#a3a3a5"></path><path d="M0 -219.4C39.9 -214.5 79.8 -209.7 109.7 -190C139.5 -170.3 159.3 -135.7 175.9 -101.6C192.5 -67.4 205.9 -33.7 219.4 0L0 0Z" fill="#808083"></path><path d="M0 -175.5C31.9 -171.6 63.9 -167.8 87.7 -152C111.6 -136.2 127.4 -108.6 140.7 -81.3C154 -53.9 164.8 -27 175.5 0L0 0Z" fill="#5f5f62"></path><path d="M0 -131.6C24 -128.7 47.9 -125.8 65.8 -114C83.7 -102.2 95.6 -81.4 105.5 -60.9C115.5 -40.5 123.6 -20.2 131.6 0L0 0Z" fill="#404044"></path><path d="M0 -87.7C16 -85.8 31.9 -83.9 43.9 -76C55.8 -68.1 63.7 -54.3 70.4 -40.6C77 -27 82.4 -13.5 87.8 0L0 0Z" fill="#232327"></path><path d="M0 -43.9C8 -42.9 16 -41.9 21.9 -38C27.9 -34.1 31.9 -27.1 35.2 -20.3C38.5 -13.5 41.2 -6.7 43.9 0L0 0Z" fill="#16161a"></path></g></svg>