<?xml version="1.0" standalone="no"?>
<svg xmlns:xlink="http://www.w3.org/1999/xlink" id="wave" style="transform:rotate(0deg); transition: 0.3s" viewBox="0 0 1440 250" version="1.1" xmlns="http://www.w3.org/2000/svg"><defs><linearGradient id="sw-gradient-0" x1="0" x2="0" y1="1" y2="0"><stop stop-color="rgba(255, 255, 255, 1)" offset="0%"/><stop stop-color="rgba(0, 0, 0, 1)" offset="100%"/></linearGradient></defs><path style="transform:translate(0, 0px); opacity:1" fill="url(#sw-gradient-0)" d="M0,150L26.7,133.3C53.3,117,107,83,160,87.5C213.3,92,267,133,320,125C373.3,117,427,58,480,62.5C533.3,67,587,133,640,145.8C693.3,158,747,117,800,120.8C853.3,125,907,175,960,175C1013.3,175,1067,125,1120,95.8C1173.3,67,1227,58,1280,50C1333.3,42,1387,33,1440,54.2C1493.3,75,1547,125,1600,158.3C1653.3,192,1707,208,1760,200C1813.3,192,1867,158,1920,137.5C1973.3,117,2027,108,2080,104.2C2133.3,100,2187,100,2240,112.5C2293.3,125,2347,150,2400,145.8C2453.3,142,2507,108,2560,108.3C2613.3,108,2667,142,2720,145.8C2773.3,150,2827,125,2880,95.8C2933.3,67,2987,33,3040,16.7C3093.3,0,3147,0,3200,29.2C3253.3,58,3307,117,3360,141.7C3413.3,167,3467,158,3520,133.3C3573.3,108,3627,67,3680,45.8C3733.3,25,3787,25,3813,25L3840,25L3840,250L3813.3,250C3786.7,250,3733,250,3680,250C3626.7,250,3573,250,3520,250C3466.7,250,3413,250,3360,250C3306.7,250,3253,250,3200,250C3146.7,250,3093,250,3040,250C2986.7,250,2933,250,2880,250C2826.7,250,2773,250,2720,250C2666.7,250,2613,250,2560,250C2506.7,250,2453,250,2400,250C2346.7,250,2293,250,2240,250C2186.7,250,2133,250,2080,250C2026.7,250,1973,250,1920,250C1866.7,250,1813,250,1760,250C1706.7,250,1653,250,1600,250C1546.7,250,1493,250,1440,250C1386.7,250,1333,250,1280,250C1226.7,250,1173,250,1120,250C1066.7,250,1013,250,960,250C906.7,250,853,250,800,250C746.7,250,693,250,640,250C586.7,250,533,250,480,250C426.7,250,373,250,320,250C266.7,250,213,250,160,250C106.7,250,53,250,27,250L0,250Z"/></svg>